<?xml version="1.0" encoding="utf-8"?><svg xmlns="http://www.w3.org/2000/svg" xmlns:xlink="http://www.w3.org/1999/xlink"><symbol viewBox="0 0 32 32" id="arrow-down" xmlns="http://www.w3.org/2000/svg"><path fill="none" stroke="#000" stroke-width="4" stroke-miterlimit="10" d="M30.5 14.5L16 29 1.5 14.5M16 29V0"/></symbol><symbol viewBox="0 0 31.83 31.83" id="arrow-left" xmlns="http://www.w3.org/2000/svg"><path fill="none" stroke="#000" stroke-miterlimit="10" stroke-width="4" d="M17.33 30.41l-14.5-14.5 14.5-14.5m-14.5 14.5h29"/></symbol><symbol viewBox="0 0 31.83 31.83" id="arrow-right" xmlns="http://www.w3.org/2000/svg"><path fill="none" stroke="#000" stroke-miterlimit="10" stroke-width="4" d="M14.5 30.41L29 15.91 14.5 1.41M29 15.91H0"/></symbol><symbol viewBox="0 0 32 32" id="bag" xmlns="http://www.w3.org/2000/svg"><path d="M30 12v18H2V12h28m2-2H0v22h32V10z"/><path d="M23 11V8A7 7 0 009 8v3" fill="none" stroke="#000" stroke-miterlimit="10" stroke-width="2"/></symbol><symbol id="bag-solid" viewBox="0 0 32 32" xmlns="http://www.w3.org/2000/svg"><style>.aest0{fill:none;stroke:#000;stroke-width:3;stroke-miterlimit:10}</style><path d="M0 10h32v22H0z"/><path class="aest0" d="M23 11.5v-3c0-3.9-3.1-7-7-7s-7 3.1-7 7v3"/></symbol><symbol id="carousel-arrow-next" viewBox="0 0 32 32" xmlns="http://www.w3.org/2000/svg"><style>.afst0{fill:none;stroke:#fff;stroke-width:2;stroke-miterlimit:10}</style><path class="afst0" d="M8.8.5L25.2 16 8.8 31.5"/></symbol><symbol id="carousel-arrow-prev" viewBox="0 0 32 32" xmlns="http://www.w3.org/2000/svg"><style>.agst0{fill:none;stroke:#fff;stroke-width:2;stroke-miterlimit:10}</style><path class="agst0" d="M23.2 31.5L6.8 16 23.2.5"/></symbol><symbol viewBox="0 0 32 32" id="checkmark" xmlns="http://www.w3.org/2000/svg"><path class="ahst0" fill="none" stroke="#000" stroke-width="3" stroke-miterlimit="10" d="M30.5 6.7L11.2 26.1l-9.7-9.7"/></symbol><symbol viewBox="0 0 32 32" id="chevron-down-skinny" xmlns="http://www.w3.org/2000/svg"><path d="M32 9L16 26 0 9z"/></symbol><symbol viewBox="0 0 32 32" id="chevron-right-skinny" xmlns="http://www.w3.org/2000/svg"><path d="M7.5 0l17 16-17 16z"/></symbol><symbol viewBox="0 0 32 32" id="close" xmlns="http://www.w3.org/2000/svg"><path class="akst0" fill="none" stroke="#000" stroke-width="2" stroke-miterlimit="10" d="M.5.5l31 31m-31 0l31-31"/></symbol><symbol viewBox="0 0 11 11" id="edit" xmlns="http://www.w3.org/2000/svg"><path d="M7.5 1.73l1.697 1.696-5.94 5.94L1.56 7.67zM0 11l.7-2.4 1.7 1.7zM9.252-.03l1.697 1.698-.777.777L8.474.748z"/></symbol><symbol viewBox="0 0 32 32" id="error-circle" xmlns="http://www.w3.org/2000/svg"><g fill-rule="evenodd"><path d="M16 3c7.2 0 13 5.8 13 13s-5.8 13-13 13S3 23.2 3 16 8.8 3 16 3zm0-3C7.2 0 0 7.2 0 16s7.2 16 16 16 16-7.2 16-16S24.8 0 16 0z" fill-rule="nonzero"/><path d="M14.5 7h3v10h-3zm0 14h3v4h-3z"/></g></symbol><symbol viewBox="0 0 18 18" id="eye" xmlns="http://www.w3.org/2000/svg"><path d="M9 12.5c-1.9 0-3.5-1.6-3.5-3.5S7.1 5.5 9 5.5s3.5 1.6 3.5 3.5-1.6 3.5-3.5 3.5zm0-6C7.6 6.5 6.5 7.6 6.5 9s1.1 2.5 2.5 2.5 2.5-1.1 2.5-2.5S10.4 6.5 9 6.5z"/><path d="M9 14.4c-3.7 0-7.1-2-8.9-5.2L-.1 9l.1-.3c1.9-3.1 5.3-5.1 9-5.1s7.1 2 8.9 5.2l.2.2-.1.3c-1.9 3.1-5.3 5.1-9 5.1zM1.1 9c1.7 2.7 4.7 4.4 7.9 4.4s6.2-1.7 7.9-4.4C15.2 6.3 12.2 4.6 9 4.6S2.8 6.3 1.1 9z"/></symbol><symbol viewBox="0 0 18 18" id="eye-off" xmlns="http://www.w3.org/2000/svg"><path d="M9 12.5c-1.9 0-3.5-1.6-3.5-3.5S7.1 5.5 9 5.5s3.5 1.6 3.5 3.5-1.6 3.5-3.5 3.5zm0-6C7.6 6.5 6.5 7.6 6.5 9s1.1 2.5 2.5 2.5 2.5-1.1 2.5-2.5S10.4 6.5 9 6.5z"/><path d="M17.9 8.8c-1-1.7-2.4-3-4-3.9L15.8 3l-.8-.8-2.1 2.1c-1.2-.4-2.5-.7-3.9-.7-3.7 0-7.1 2-9 5.1l-.1.3.2.2c1 1.7 2.4 3.1 4.1 4l-2 2 .8.7 2.2-2.2c1.2.5 2.5.8 3.8.8 3.7 0 7.1-2 9-5.1l.1-.4-.2-.2zM1.1 9C2.8 6.3 5.8 4.6 9 4.6c1.1 0 2.1.2 3.1.6l-7.2 7.3c-1.5-.8-2.9-2-3.8-3.5zM9 13.4c-1.1 0-2.1-.2-3.1-.5l7.2-7.2c1.5.7 2.9 1.8 3.8 3.3-1.7 2.7-4.7 4.4-7.9 4.4z"/></symbol><symbol viewBox="0 0 512 512" id="fullscreen" xmlns="http://www.w3.org/2000/svg"><path d="M379.192 242.78a4.808 4.808 0 01-4.807-4.808V137.615H274.028a4.808 4.808 0 010-9.615h105.164a4.808 4.808 0 014.808 4.808v105.164a4.808 4.808 0 01-4.808 4.807zm-246.384 0a4.808 4.808 0 01-4.808-4.808V132.808a4.808 4.808 0 014.808-4.808h105.164a4.808 4.808 0 010 9.615H137.615v100.357a4.808 4.808 0 01-4.807 4.807zM379.192 384H274.028a4.808 4.808 0 010-9.615h100.357V274.028a4.808 4.808 0 019.615 0v105.164a4.808 4.808 0 01-4.808 4.808zm-141.22 0H132.808a4.808 4.808 0 01-4.808-4.808V274.028a4.808 4.808 0 019.615 0v100.357h100.357a4.808 4.808 0 010 9.615z"/></symbol><symbol viewBox="0 0 32 26" id="hamburger-menu" xmlns="http://www.w3.org/2000/svg"><path fill="none" stroke="#000" stroke-miterlimit="10" stroke-width="2" d="M0 25h32M0 1h32M0 13h32"/></symbol><symbol viewBox="0 0 24 24" id="heart" xmlns="http://www.w3.org/2000/svg"><g data-name="Layer 2"><path d="M12 21a1 1 0 01-.71-.29l-7.77-7.78a5.26 5.26 0 010-7.4 5.24 5.24 0 017.4 0L12 6.61l1.08-1.08a5.24 5.24 0 017.4 0 5.26 5.26 0 010 7.4l-7.77 7.78A1 1 0 0112 21zM7.22 6a3.2 3.2 0 00-2.28.94 3.24 3.24 0 000 4.57L12 18.58l7.06-7.07a3.24 3.24 0 000-4.57 3.32 3.32 0 00-4.56 0l-1.79 1.8a1 1 0 01-1.42 0L9.5 6.94A3.2 3.2 0 007.22 6z" data-name="heart"/></g></symbol><symbol viewBox="0 0 1000 140" id="logo-jil" xmlns="http://www.w3.org/2000/svg"><path d="M0 125.8c3.1 5.9 14.2 14 28.4 14 15.7 0 26.2-6.6 32.3-16.2 6.5-10 8.1-22.9 8.1-42.3V5.4H22.2v81c0 7.6-4.2 11.1-9.2 11.1-3.7 0-6.8-1.7-9.4-4.4L0 125.8zm945-74.4c0-6.8-5-11.4-12.9-11.4h-7.2v22.9h7.2c7.9-.1 12.9-4.7 12.9-11.5m55 83.2h-54.5l-20.7-44.7v44.7h-48.4V5.4H945c34.3 0 50.4 18.8 50.4 42.3 0 17.7-8.5 30.5-21.2 36.4l-2.4 1.1 28.2 49.4zM345.9 48.2c-4.4-3.7-15.9-11.1-27.5-11.1-3.1 0-11.1.6-11.8 5.5-.7 5.5 8.7 6.6 22.9 9.6 14.6 3 33.8 13.1 33.8 39.1 0 24.4-18.6 48.4-57.4 48.4-31.2 0-53.2-16.1-53.2-16.1l16.6-38.4s16.2 16.2 32.3 16.2c4.6 0 11.1-1.1 11.4-6.5.2-3.7-3.1-5.9-12.2-7.4-16.6-2.6-43.8-13.7-43.8-42.3C257 19 279.3 0 313.9 0c21.6 0 36.4 7.9 46.5 14.2l-14.5 34zM639.8 5.4h65.5c37.3 0 58.9 29.9 58.9 65.3 0 35.1-21.6 63.9-58.9 63.9h-65.5V5.4zm74.1 65.2c0-12.6-6.5-24.4-18.8-24.4h-6.8v48.4h6.8c12.3 0 18.8-11.3 18.8-24M628.8 5.4h-46.3V63l-30-57.6h-48.4v129.2h46.3V78.1l30.8 56.5h47.4V5.4zM127.7 134.6H79.4V5.4h48.4v129.2zm300.6-81l-9.2 34.3h18.6l-9.4-34.3zm26.9-48.2l43 129.2h-48.4l-4.2-14.8h-34.9l-4.2 14.8h-48l43-129.2h53.7zm410.2 0v36.4h-45v10.5h42.8v34h-42.8v12h46.7v36.4H772V5.4h93.4zM187.2 96.6h41.7v38h-90.1V5.4h48.4v91.2z"/></symbol><symbol viewBox="0 0 1000 140" id="logo-jilsander" xmlns="http://www.w3.org/2000/svg"><path d="M0 125.8c3.1 5.9 14.2 14 28.4 14 15.7 0 26.2-6.6 32.3-16.2 6.5-10 8.1-22.9 8.1-42.3V5.4H22.2v81c0 7.6-4.2 11.1-9.2 11.1-3.7 0-6.8-1.7-9.4-4.4L0 125.8zm945-74.4c0-6.8-5-11.4-12.9-11.4h-7.2v22.9h7.2c7.9-.1 12.9-4.7 12.9-11.5m55 83.2h-54.5l-20.7-44.7v44.7h-48.4V5.4H945c34.3 0 50.4 18.8 50.4 42.3 0 17.7-8.5 30.5-21.2 36.4l-2.4 1.1 28.2 49.4zM345.9 48.2c-4.4-3.7-15.9-11.1-27.5-11.1-3.1 0-11.1.6-11.8 5.5-.7 5.5 8.7 6.6 22.9 9.6 14.6 3 33.8 13.1 33.8 39.1 0 24.4-18.6 48.4-57.4 48.4-31.2 0-53.2-16.1-53.2-16.1l16.6-38.4s16.2 16.2 32.3 16.2c4.6 0 11.1-1.1 11.4-6.5.2-3.7-3.1-5.9-12.2-7.4-16.6-2.6-43.8-13.7-43.8-42.3C257 19 279.3 0 313.9 0c21.6 0 36.4 7.9 46.5 14.2l-14.5 34zM639.8 5.4h65.5c37.3 0 58.9 29.9 58.9 65.3 0 35.1-21.6 63.9-58.9 63.9h-65.5V5.4zm74.1 65.2c0-12.6-6.5-24.4-18.8-24.4h-6.8v48.4h6.8c12.3 0 18.8-11.3 18.8-24M628.8 5.4h-46.3V63l-30-57.6h-48.4v129.2h46.3V78.1l30.8 56.5h47.4V5.4zM127.7 134.6H79.4V5.4h48.4v129.2zm300.6-81l-9.2 34.3h18.6l-9.4-34.3zm26.9-48.2l43 129.2h-48.4l-4.2-14.8h-34.9l-4.2 14.8h-48l43-129.2h53.7zm410.2 0v36.4h-45v10.5h42.8v34h-42.8v12h46.7v36.4H772V5.4h93.4zM187.2 96.6h41.7v38h-90.1V5.4h48.4v91.2z"/></symbol><symbol viewBox="0 0 32 32" id="minus" xmlns="http://www.w3.org/2000/svg"><path d="M7 16h18" stroke="#000" stroke-width="3" fill="none"/></symbol><symbol viewBox="0 0 32 32" id="minus-circle" xmlns="http://www.w3.org/2000/svg"><g fill="none" fill-rule="evenodd"><path d="M7 16h18" stroke="#000" stroke-width="3"/><path d="M16 3c7.2 0 13 5.8 13 13s-5.8 13-13 13S3 23.2 3 16 8.8 3 16 3zm0-3C7.2 0 0 7.2 0 16s7.2 16 16 16 16-7.2 16-16S24.8 0 16 0z" fill="#000" fill-rule="nonzero"/></g></symbol><symbol viewBox="0 0 512 512" id="pause" xmlns="http://www.w3.org/2000/svg"><path d="M191 112v288h-47V112h47m16-16h-79v320h79V96zm161 16v288h-47V112h47m16-16h-79v320h79V96z"/></symbol><symbol viewBox="0 0 512 512" id="play" xmlns="http://www.w3.org/2000/svg"><path d="M144 124.9L353.8 256 144 387.1V124.9M128 96v320l256-160L128 96z"/></symbol><symbol viewBox="0 0 32 32" id="plus" xmlns="http://www.w3.org/2000/svg"><path class="ayst0" fill="none" stroke="#000" stroke-width="4" stroke-miterlimit="10" d="M0 16h32M16 0v32"/></symbol><symbol viewBox="0 0 32 32" id="plus-circle" xmlns="http://www.w3.org/2000/svg"><g fill="none" fill-rule="evenodd"><path d="M7 16h18m-9-9v18" stroke="#000" stroke-width="3"/><path d="M16 3c7.2 0 13 5.8 13 13s-5.8 13-13 13S3 23.2 3 16 8.8 3 16 3zm0-3C7.2 0 0 7.2 0 16s7.2 16 16 16 16-7.2 16-16S24.8 0 16 0z" fill="#000" fill-rule="nonzero"/></g></symbol><symbol viewBox="0 0 31.61 31.61" id="search" xmlns="http://www.w3.org/2000/svg"><path fill="none" stroke="#000" stroke-miterlimit="10" stroke-width="2" d="M19.1 19.1l11.8 11.8"/><path d="M11.5 2A9.5 9.5 0 112 11.5 9.5 9.5 0 0111.5 2m0-2A11.57 11.57 0 000 11.5 11.57 11.57 0 0011.5 23a11.5 11.5 0 100-23z"/></symbol><symbol viewBox="0 0 512 512" id="smallscreen" xmlns="http://www.w3.org/2000/svg"><path d="M379.192 242.78H274.028a4.808 4.808 0 01-4.807-4.808V132.808a4.808 4.808 0 019.615 0v100.356h100.356a4.808 4.808 0 010 9.615zm-141.22 0H132.808a4.808 4.808 0 010-9.616h100.356V132.808a4.808 4.808 0 019.615 0v105.164a4.808 4.808 0 01-4.807 4.807zM274.028 384a4.808 4.808 0 01-4.807-4.808V274.028a4.808 4.808 0 014.807-4.807h105.164a4.808 4.808 0 010 9.615H278.836v100.356a4.808 4.808 0 01-4.808 4.808zm-36.056 0a4.808 4.808 0 01-4.808-4.808V278.836H132.808a4.808 4.808 0 010-9.615h105.164a4.808 4.808 0 014.807 4.807v105.164a4.808 4.808 0 01-4.807 4.808z"/></symbol><symbol viewBox="0 0 32 32" id="star" xmlns="http://www.w3.org/2000/svg"><path class="bcst0" d="M31 12.6c-.1-.4-.4-.6-.8-.6H20l-3.1-9.7c-.1-.4-.4-.6-.8-.6s-.7.2-.8.6L12.1 12H1.9c-.4 0-.7.2-.8.6-.1.4 0 .7.3 1l8.2 6-3.1 9.7c-.1.4 0 .7.3 1 .1.1.3.2.5.2s.4-.1.5-.2l8.2-6 8.2 6c.3.2.7.2 1 0 .3-.2.4-.6.3-1l-3.1-9.7 8.2-6c.3-.3.5-.7.4-1zm-10.1 5.9c-.3.2-.4.6-.3 1l2.5 7.8-6.6-4.8c-.3-.2-.7-.2-1 0l-6.6 4.8 2.5-7.8c.1-.4 0-.7-.3-1l-6.6-4.8h8.1c.4 0 .7-.2.8-.6L16 5.3l2.5 7.8c.1.4.4.6.8.6h8.1l-6.5 4.8z" stroke="#000" stroke-miterlimit="10"/></symbol><symbol viewBox="0 0 32 32" id="star-filled" xmlns="http://www.w3.org/2000/svg"><path d="M31 12.6c-.1-.4-.4-.6-.8-.6H20l-3.1-9.7c-.1-.4-.4-.6-.8-.6s-.7.2-.8.6L12.1 12H1.9c-.4 0-.7.2-.8.6-.1.4 0 .7.3 1l8.2 6-3.1 9.7c-.1.4 0 .7.3 1 .1.1.3.2.5.2s.4-.1.5-.2l8.2-6 8.2 6c.3.2.7.2 1 0s.4-.6.3-1l-3.1-9.7 8.2-6c.3-.3.5-.7.4-1z"/></symbol><symbol viewBox="0 0 512 512" id="store-marker" xmlns="http://www.w3.org/2000/svg"><path d="M256 4.673C512.173 3.464 406.36 256 406.36 256S283.033 506.209 252.949 506.209C222.866 506.209 98.721 256 98.721 256S-.173 5.882 256 4.673z" fill="none" stroke="#000" stroke-width="45"/></symbol></svg>